<svg width="250" height="250" viewBox="0 0 250 250" fill="none" xmlns="http://www.w3.org/2000/svg">
<path d="M124.933 50.0552C141.983 49.4414 153.302 53.9916 167.935 61.4805C169.73 57.7867 172.15 51.5314 176.619 50.9667C180.992 52.6387 182.35 61.6437 183.977 65.4676C194.705 90.6845 189.782 86.8592 165.78 87.4029C162.08 87.4871 155.424 88.7187 153.8 84.681C154.011 80.6793 158.209 75.3194 160.514 71.8141C151.54 66.8955 145.829 63.9028 135.198 62.7141C117.369 60.5715 99.4336 65.7516 85.4938 77.0688C58.8114 98.3975 53.7073 137.453 75.4358 164.302C86.2067 177.401 101.763 185.659 118.65 187.243C135.084 188.947 151.699 183.194 164.414 172.841C165.156 172.252 165.879 171.641 166.583 171.008C179.71 159.329 186.14 143.979 187.152 126.666C191.009 120.345 195.157 120.939 199.235 126.42C200.096 163.217 166.609 195.421 130.825 198.732C111.069 200.547 91.3941 194.504 76.0644 181.914C61.1358 169.608 51.8278 151.784 50.2616 132.504C47.8636 104.819 62.1309 76.9704 85.6302 62.395C98.6529 54.3175 109.808 51.3004 124.933 50.0552Z" fill="black"/>
<path d="M118.247 109.297C120.667 109.173 123.608 109.227 126.074 109.205C126.518 115.488 126.018 121.822 126.825 128.014C126.939 128.886 128.572 129.754 129.495 130.413C130.312 132.049 130.169 132.494 129.963 134.343C128.278 137.474 126.685 133.61 126.053 141.375C123.62 141.627 120.7 142.335 118.878 140.576C118.878 139.995 118.909 137.328 118.818 137.024C117.716 133.618 104.483 138.207 105.016 132.407C105.582 126.233 114.504 114.186 118.247 109.297Z" fill="black"/>
<path d="M90.6411 108.377C94.7097 108.493 97.9195 109.13 100.72 112.316C108.653 121.344 96.4079 129.552 90.4004 135.056C94.5137 135.36 98.8634 135.361 103.002 135.439L102.821 141.535L88.1871 141.509L81.4564 141.355C81.5587 128.436 90.8994 129.465 95.7462 119.331C96.5653 117.618 94.0416 115.01 91.8847 114.683C88.8985 115.731 84.2482 124.025 81.3906 117.075C81.7985 112.279 86.5161 109.568 90.6411 108.377Z" fill="black"/>
<path d="M150.912 108.816C156.765 109.403 166.011 108.563 172.737 108.79C172.519 117.609 165.328 132.627 161.347 141.062C159.315 141.675 155.729 141.36 153.479 141.268C156.76 132.63 160.847 124.469 164.164 115.824C160.128 115.443 154.901 115.361 150.765 115.189C150.704 113.237 150.846 110.804 150.912 108.816Z" fill="black"/>
<path d="M143.55 107.412L149.747 107.415C147.252 115.822 143.905 124.706 141.096 133.065C140.11 135.996 137.325 144.367 136.151 146.68L129.404 146.729C130.902 141.257 140.981 110.507 143.55 107.412Z" fill="black"/>
<path d="M123.358 68.2012C130.255 68.9602 129.534 80.1035 125.535 83.7344C118.925 82.21 120.324 70.8626 123.358 68.2012Z" fill="black"/>
<path d="M123.518 166.016C124.308 166.215 125.056 166.488 125.828 166.747C129.351 169.865 128.828 177.999 125.62 181.431C122.412 180.948 121.559 179.838 121.083 176.681C120.483 172.708 120.678 168.9 123.518 166.016Z" fill="black"/>
<path d="M88.8149 154.363C90.7392 154.288 92.1144 154.753 92.727 156.635C92.1169 159.764 88.7077 162.34 86.3325 164.461C84.0568 164.339 83.0384 164.18 82.4492 161.934C83.1724 158.722 86.3457 156.429 88.8149 154.363Z" fill="black"/>
<path d="M85.5944 85.7305C88.4919 87.2695 92.3913 90.1575 92.7217 93.6184C92.3962 95.1886 91.5015 95.6499 90.2238 96.7027C87.5957 95.3182 82.7636 91.487 82.9692 88.2253C83.6768 86.6722 84.0233 86.6327 85.5944 85.7305Z" fill="black"/>
<path d="M157.128 154.25C160.454 154.778 164.452 157.618 165.368 160.954C165.787 162.481 164.981 163.317 164.268 164.582C159.696 164.316 154.066 159.477 157.128 154.25Z" fill="black"/>
</svg>
