<svg width="250" height="250" viewBox="0 0 250 250" fill="none" xmlns="http://www.w3.org/2000/svg">
<path d="M145.507 64.2292C156.845 64.6518 168.582 63.6251 179.906 64.1567C193.892 64.8139 194.919 74.8736 194.456 86.3592C193.911 100.034 194.783 113.888 194.111 127.546C172.316 118.162 148.822 128.791 144.864 153.349C144.31 156.792 144.597 159.847 144.821 163.298C134.87 163.181 125.163 164.247 115.217 163.979C108.791 163.809 102.351 163.955 95.9151 163.775C82.6834 164.247 68.4781 164.106 55.2075 164.038C38.3052 163.955 43.8403 139.19 43.962 128.921L44.1178 94.0466C44.1519 87.2817 42.9884 75.2825 47.691 70.1802C54.0294 63.3014 69.9191 64.9707 78.9836 64.8407C91.5873 64.6182 104.196 64.5204 116.804 64.5476C125.791 64.5603 136.628 64.828 145.507 64.2292ZM99.2206 156.552C121.755 155.681 139.359 136.791 138.648 114.253C137.932 91.7153 119.165 73.9764 96.6258 74.5328C73.8574 75.0946 55.9036 94.0885 56.6241 116.85C57.3446 139.611 76.4668 157.431 99.2206 156.552ZM179.769 115.874C180.402 113.951 180.684 114.125 180.188 112.371C177.924 111.143 153.51 111.377 149.538 111.682C149.178 113.212 148.993 113.476 149.504 114.877C149.776 115.119 150.127 115.426 150.55 115.799C159.537 116.633 169.181 115.95 178.255 116.054C178.606 116.059 179.497 115.916 179.769 115.874ZM156.271 96.8205C154.275 96.8736 151.539 96.7446 149.83 97.5508L149.314 98.3273C149.718 99.9095 149.723 99.9679 150.872 101.067C154.83 101.947 169.911 101.286 175.037 101.367C176.829 101.295 178.143 101.406 179.721 100.605L180.363 99.5176C179.287 95.4862 160.477 96.6326 156.271 96.8205ZM179.389 86.3563C180.217 84.7337 180.168 85.3403 180.086 83.6656C177.121 80.5889 155.915 82.0679 150.409 82.0168C149.309 83.8175 149.319 83.2158 149.416 85.0034C151.339 86.9254 157.006 86.4449 160.014 86.4405L179.389 86.3563Z" fill="black"/>
<path d="M95.0585 79.0034C115.14 77.5946 132.597 92.6544 134.145 112.726C135.693 132.797 120.758 150.358 100.696 152.048C80.4394 153.754 62.6657 138.636 61.103 118.365C59.5355 98.0937 74.7777 80.4264 95.0585 79.0034ZM101.889 110.251C102.95 111.66 103.758 112.694 104.644 114.247C105.102 118.89 104.371 120.41 100.925 123.463C98.9969 123.728 97.5558 124.004 95.594 123.797C91.4414 122.277 89.9859 119.898 89.6695 115.674C90.5944 113.566 91.4853 112.296 92.7461 110.381C96.0078 108.937 98.5733 108.814 101.889 110.251ZM90.7648 109.935C89.5185 112.312 89.1534 113.068 88.3843 115.622L87.8536 115.769C84.5384 116.668 81.6711 116.561 78.2974 116.235C62.5148 114.707 73.069 141.177 84.4946 136.719C90.1514 134.51 91.7043 129.43 95.1315 125.557L101.947 125.091C107.297 130.186 106.947 130.595 111.508 136.382C118.679 139.946 124.968 128.814 124.024 122.52C123.552 119.569 121.936 116.924 119.526 115.156C115.188 111.97 110.71 112.424 105.759 113.14C104.464 111.269 104.22 110.77 102.239 109.592C101.275 100.777 112.569 98.0197 109.132 91.0167C106.776 86.2147 95.9883 86.2259 91.3684 89.1571C88.8419 90.7232 87.0844 93.2697 86.5197 96.1848C85.4585 101.486 87.9851 105.757 90.7648 109.935Z" fill="black"/>
<path d="M92.7466 110.38C96.0082 108.936 98.5738 108.813 101.889 110.25C102.95 111.659 103.758 112.694 104.644 114.247C105.102 118.889 104.372 120.409 100.925 123.463C98.9973 123.727 97.5563 124.003 95.5944 123.797C91.4419 122.276 89.9864 119.897 89.6699 115.673C90.5949 113.565 91.4857 112.295 92.7466 110.38Z" fill="black"/>
<path d="M90.7653 109.936L92.7466 110.381C91.4858 112.296 90.5949 113.566 89.67 115.675L88.3848 115.622C89.1539 113.068 89.5191 112.312 90.7653 109.936Z" fill="black"/>
<path d="M95.5933 123.797C97.5552 124.004 98.9962 123.727 100.924 123.463L101.946 125.091L95.1309 125.556L95.5933 123.797Z" fill="black"/>
<path d="M102.239 109.592C104.221 110.769 104.464 111.268 105.759 113.14L104.644 114.247C103.758 112.694 102.95 111.66 101.889 110.25L102.239 109.592Z" fill="black"/>
<path d="M176.01 127.833C191.817 126.683 205.589 138.516 206.831 154.318C208.072 170.122 196.32 183.957 180.523 185.291C164.599 186.64 150.623 174.766 149.372 158.834C148.116 142.901 160.072 128.992 176.01 127.833ZM174.516 152.573C170.797 152.683 163.339 152.159 161.391 155.91C162.93 160.025 171.016 159.37 174.706 159.365C174.56 164.898 172.549 173.549 180.523 171.952C181.901 169.255 181.429 162.605 181.365 159.259C185.722 159.335 191.856 160.025 195.045 156.485C194.266 151.997 185.206 152.625 181.628 152.587C181.56 148.744 182.349 143.312 180.012 140.905C178.459 140.175 177.563 140.324 175.845 140.327C174.175 142.543 174.861 149.291 174.516 152.573Z" fill="black"/>
<path d="M58.8687 166.628C65.3482 166.492 71.8277 166.399 78.3073 166.355C78.3657 168.556 78.7795 175.147 78.0542 176.89C74.3738 179.485 62.992 179.427 59.1121 177.187C58.3478 173.775 58.5961 170.123 58.8687 166.628Z" fill="black"/>
<path d="M59.1113 177.186C65.3913 176.845 71.7588 176.898 78.0534 176.889C74.373 179.483 62.9913 179.425 59.1113 177.186Z" fill="black"/>
</svg>
