<svg width="200" height="200" viewBox="0 0 200 200" fill="none" xmlns="http://www.w3.org/2000/svg">
<path d="M115.243 57.1703C128.094 56.4251 131.952 58.5865 131.985 72.151C132.009 81.7462 132.07 91.2602 131.54 100.878C106.851 102.673 94.5206 125.667 109.359 145.481C115.998 152.181 121.516 154.756 130.944 154.678C128.408 156.053 125.984 157.391 123.026 157.585C111.699 158.332 99.7247 157.829 88.3132 157.894C77.8911 157.949 67.422 158.088 57.0514 157.778C55.0729 157.589 52.4428 156.999 50.905 155.762C45.851 151.697 47.1496 141.803 47.1496 135.805V112.465L47.1824 83.9044C47.1918 78.5194 47.0934 73.2469 47.4122 67.8665C47.8857 59.8845 51.2613 57.5837 58.8705 57L63.9901 57.0115C64.0229 60.4793 62.9915 66.4522 65.2185 69.3602C66.3484 70.8327 68.7957 71.0205 70.5585 71.1797C76.1658 71.6868 111.178 71.9692 113.241 70.0237C116.303 67.1346 115.313 60.9956 115.243 57.1703ZM89.9073 126.188C108.018 123.226 106.987 107.232 98.3322 95.6172C95.6599 92.0276 92.6265 86.1244 89.5275 82.976C84.4172 90.5201 72.6073 104.551 74.4967 114.029C76.0439 121.804 82.1293 125.671 89.9073 126.188Z" fill="#73C000"/>
<path d="M127.54 105.134C140.099 103.781 151.401 112.82 152.848 125.375C154.29 137.924 145.335 149.291 132.79 150.827C120.122 152.378 108.609 143.311 107.152 130.624C105.696 117.943 114.844 106.501 127.54 105.134ZM126.72 131.204C124.382 128.838 121.314 125.035 117.586 126.708C115.97 129.536 118.199 131.576 120.164 133.494C122.276 135.436 124.561 137.632 126.743 139.461C130.038 136.708 141.042 125.884 142.673 121.421C143.054 120.375 142.272 119.46 141.73 118.697C140.806 118.216 140.387 117.929 139.345 117.74C135.839 121.548 130.368 127.863 126.72 131.204Z" fill="#73C000"/>
<path d="M87.8152 41.0732C96.2808 40.3987 98.5554 44.4288 100.932 51.3711C102.653 51.353 107.868 51.0711 108.877 52.0315C111.258 54.2929 111.733 63.6227 109.807 66.0264C106.188 67.4188 96.9413 66.8871 92.6201 66.8305C88.2291 66.8699 73.5073 67.4968 70.1908 66.0585C69.0745 64.4367 69 62.3517 69 60.4597C69.0093 50.3191 71.0792 51.2252 79.5263 51.396C80.4379 45.3589 82.0706 43.4003 87.8152 41.0732ZM91.1828 53.4331C92.8946 52.837 93.8062 51.0275 93.2527 49.3445C92.6945 47.662 90.8665 46.7128 89.1222 47.2005C87.9454 47.5301 87.043 48.4597 86.7733 49.6255C86.5035 50.7914 86.9035 52.0089 87.8244 52.8012C88.7408 53.594 90.0293 53.836 91.1828 53.4331Z" fill="#73C000"/>
</svg>
