<svg width="250" height="250" viewBox="0 0 250 250" fill="none" xmlns="http://www.w3.org/2000/svg">
<path d="M146.006 44C146.848 44.227 147.524 44.5374 148.331 44.8647C149.482 46.1801 149.458 47.7484 149.211 49.4725C148.197 56.5546 145.482 63.7922 143.515 70.7427C141.259 78.714 139.034 86.4572 137.059 94.4996C135.988 98.8618 133.858 103.964 133.653 108.38C137.617 112.498 174.398 105.202 176.826 112.533C175.158 117.853 113.131 194.964 103.976 206.063C102 206.902 100.584 207.154 99.1362 205.489C98.5051 202.56 112.474 150.816 114.285 143.417C104.284 142.824 94.2197 143.301 84.2042 143.17C80.9139 143.127 77.5227 143.308 74.3012 142.547C73.4435 141.688 72.965 140.793 73.002 139.536C73.0571 137.648 141.157 48.1181 146.006 44Z" fill="white"/>
<path d="M146.006 44C146.848 44.227 147.524 44.5374 148.331 44.8647C149.482 46.1801 149.458 47.7484 149.211 49.4725C148.197 56.5546 145.482 63.7922 143.515 70.7427C141.259 78.714 139.034 86.4572 137.059 94.4996C135.988 98.8618 133.858 103.964 133.653 108.38C137.617 112.498 174.398 105.202 176.826 112.533C175.158 117.853 113.131 194.964 103.976 206.063C102 206.902 100.584 207.154 99.1362 205.489C98.5051 202.56 112.474 150.816 114.285 143.417C104.284 142.824 94.2197 143.301 84.2042 143.17C80.9139 143.127 77.5227 143.308 74.3012 142.547C73.4435 141.688 72.965 140.793 73.002 139.536C73.0571 137.648 141.157 48.1181 146.006 44Z" fill="black" fill-opacity="0.2"/>
</svg>
