<svg width="250" height="250" viewBox="0 0 250 250" fill="none" xmlns="http://www.w3.org/2000/svg">
<path d="M44.2105 59.2962C62.9539 58.5791 86.4633 59.3945 105.712 59.3556L133.763 59.2611C162.378 59.2076 160.251 59.7158 160.514 87.3776C171.9 89.3117 180.946 86.05 192.313 97.3122C202.959 107.86 201.484 123.086 201.392 136.98C197.945 136.678 196.504 136.576 193.092 136.853C193.247 115.974 193.72 98.0098 166.969 97.7016L160.168 97.7123C160.095 108.024 160.095 118.335 160.163 128.65C160.212 134.419 160.655 140.441 160.095 146.166C159.886 148.333 159.404 150.416 158.523 152.412C157.88 153.868 156.911 155.606 155.358 156.185C146.761 159.398 103.844 157.602 92.472 157.631C77.1232 157.665 61.2632 158.609 45.9548 157.641C43.5961 157.495 39.8652 157.193 37.7869 155.951C36.0996 154.944 34.5788 152.159 34.0516 150.285C32.2665 143.932 33.5225 117.322 33.4845 109.101C33.43 97.1944 32.541 85.0077 33.3151 73.1293C33.5093 70.1553 33.7449 66.5727 35.3612 63.9882C37.3897 60.746 40.7517 60.0454 44.2105 59.2962ZM123.891 142.355C127.834 142.393 146.649 143.742 146.849 139.711C147.204 132.394 148.353 75.1145 146.148 72.5933C142.015 71.1479 126.656 71.8893 121.34 71.716C104.695 71.1732 86.0645 72.3421 69.5663 71.6016C64.9503 71.7895 50.6998 71.0822 47.6947 72.7194C46.8228 74.7587 46.6027 77.0389 46.4615 79.2331C46 86.3996 45.3355 136.313 47.0409 140.149C47.3558 140.855 47.8139 141.308 48.55 141.59C53.7136 143.576 113.915 142.062 123.891 142.355Z" fill="white"/>
<path d="M44.2105 59.2962C62.9539 58.5791 86.4633 59.3945 105.712 59.3556L133.763 59.2611C162.378 59.2076 160.251 59.7158 160.514 87.3776C171.9 89.3117 180.946 86.05 192.313 97.3122C202.959 107.86 201.484 123.086 201.392 136.98C197.945 136.678 196.504 136.576 193.092 136.853C193.247 115.974 193.72 98.0098 166.969 97.7016L160.168 97.7123C160.095 108.024 160.095 118.335 160.163 128.65C160.212 134.419 160.655 140.441 160.095 146.166C159.886 148.333 159.404 150.416 158.523 152.412C157.88 153.868 156.911 155.606 155.358 156.185C146.761 159.398 103.844 157.602 92.472 157.631C77.1232 157.665 61.2632 158.609 45.9548 157.641C43.5961 157.495 39.8652 157.193 37.7869 155.951C36.0996 154.944 34.5788 152.159 34.0516 150.285C32.2665 143.932 33.5225 117.322 33.4845 109.101C33.43 97.1944 32.541 85.0077 33.3151 73.1293C33.5093 70.1553 33.7449 66.5727 35.3612 63.9882C37.3897 60.746 40.7517 60.0454 44.2105 59.2962ZM123.891 142.355C127.834 142.393 146.649 143.742 146.849 139.711C147.204 132.394 148.353 75.1145 146.148 72.5933C142.015 71.1479 126.656 71.8893 121.34 71.716C104.695 71.1732 86.0645 72.3421 69.5663 71.6016C64.9503 71.7895 50.6998 71.0822 47.6947 72.7194C46.8228 74.7587 46.6027 77.0389 46.4615 79.2331C46 86.3996 45.3355 136.313 47.0409 140.149C47.3558 140.855 47.8139 141.308 48.55 141.59C53.7136 143.576 113.915 142.062 123.891 142.355Z" fill="black" fill-opacity="0.2"/>
<path d="M58.8597 75.4953C60.3562 75.301 65.2371 75.6578 67.1079 75.672C74.9427 75.6671 82.777 75.7168 90.6114 75.8209C101.209 75.873 111.807 75.8482 122.402 75.746C128.678 75.7387 136.613 75.4339 142.61 76.4738C143.735 78.9609 143.043 129.886 142.951 137.427C135.824 137.612 128.702 137.622 121.575 137.471C116.648 137.378 109.452 136.799 104.843 137.709C122.539 129.083 130.328 114.537 122.183 95.6361C118.878 90.7143 115.498 86.5267 110.254 83.5678C103.797 79.8874 96.1182 79.0009 88.9927 81.1127C66.696 87.7413 61.1784 117.156 78.4478 132.052C81.4495 134.642 83.7643 135.762 87.2572 137.549C83.2288 137.11 77.7073 137.398 73.4988 137.461C65.9317 137.627 58.3617 137.612 50.7951 137.417C50.0158 129.896 50.633 116.352 50.6257 108.128C50.6189 100.006 49.766 83.1788 51.0605 76.3087C52.094 75.6613 57.0668 75.6535 58.8597 75.4953Z" fill="white"/>
<path d="M58.8597 75.4953C60.3562 75.301 65.2371 75.6578 67.1079 75.672C74.9427 75.6671 82.777 75.7168 90.6114 75.8209C101.209 75.873 111.807 75.8482 122.402 75.746C128.678 75.7387 136.613 75.4339 142.61 76.4738C143.735 78.9609 143.043 129.886 142.951 137.427C135.824 137.612 128.702 137.622 121.575 137.471C116.648 137.378 109.452 136.799 104.843 137.709C122.539 129.083 130.328 114.537 122.183 95.6361C118.878 90.7143 115.498 86.5267 110.254 83.5678C103.797 79.8874 96.1182 79.0009 88.9927 81.1127C66.696 87.7413 61.1784 117.156 78.4478 132.052C81.4495 134.642 83.7643 135.762 87.2572 137.549C83.2288 137.11 77.7073 137.398 73.4988 137.461C65.9317 137.627 58.3617 137.612 50.7951 137.417C50.0158 129.896 50.633 116.352 50.6257 108.128C50.6189 100.006 49.766 83.1788 51.0605 76.3087C52.094 75.6613 57.0668 75.6535 58.8597 75.4953Z" fill="black" fill-opacity="0.2"/>
<path d="M100.753 126.258C87.6649 124.9 80.7161 116.58 82.2666 103.473C83.3274 94.5058 91.5176 83.23 101.282 84.9826C121.987 88.6995 127.815 117.189 110.611 129.209C98.5311 137.645 85.0376 134.914 76.6278 122.88C69.0895 110.846 72.9085 98.6895 82.252 89.4935C78.9076 99.5697 74.3524 108.484 79.7439 118.829C84.3804 127.724 92.9196 131.38 102.549 128.824C106.261 128.055 108.705 125.757 111.63 123.435C107.725 124.715 104.863 125.806 100.753 126.258ZM107.345 120.728C97.8632 119.706 94.3411 118.854 89.7694 109.926C88.1347 103.356 88.9608 100.45 90.6291 94.0141C87.052 100.468 85.9265 102.682 86.5457 110.301C90.0454 119.55 97.594 125.046 107.345 120.728Z" fill="white"/>
<path d="M100.753 126.258C87.6649 124.9 80.7161 116.58 82.2666 103.473C83.3274 94.5058 91.5176 83.23 101.282 84.9826C121.987 88.6995 127.815 117.189 110.611 129.209C98.5311 137.645 85.0376 134.914 76.6278 122.88C69.0895 110.846 72.9085 98.6895 82.252 89.4935C78.9076 99.5697 74.3524 108.484 79.7439 118.829C84.3804 127.724 92.9196 131.38 102.549 128.824C106.261 128.055 108.705 125.757 111.63 123.435C107.725 124.715 104.863 125.806 100.753 126.258ZM107.345 120.728C97.8632 119.706 94.3411 118.854 89.7694 109.926C88.1347 103.356 88.9608 100.45 90.6291 94.0141C87.052 100.468 85.9265 102.682 86.5457 110.301C90.0454 119.55 97.594 125.046 107.345 120.728Z" fill="black" fill-opacity="0.2"/>
<path d="M90.6293 94.0156C88.9609 100.451 88.1348 103.358 89.7695 109.927C88.5691 109.842 88.2887 109.75 87.2133 109.205L86.5458 110.303C85.9266 102.684 87.0521 100.469 90.6293 94.0156Z" fill="white"/>
<path d="M90.6293 94.0156C88.9609 100.451 88.1348 103.358 89.7695 109.927C88.5691 109.842 88.2887 109.75 87.2133 109.205L86.5458 110.303C85.9266 102.684 87.0521 100.469 90.6293 94.0156Z" fill="black" fill-opacity="0.2"/>
<path d="M100.753 126.259C104.862 125.806 107.725 124.716 111.63 123.436C108.705 125.758 106.261 128.056 102.549 128.825C100.975 128.489 100.254 128.372 98.7559 127.734C100.217 126.941 101.667 126.907 103.339 126.692C102.449 126.668 102.214 126.678 101.346 126.434L100.753 126.259Z" fill="white"/>
<path d="M100.753 126.259C104.862 125.806 107.725 124.716 111.63 123.436C108.705 125.758 106.261 128.056 102.549 128.825C100.975 128.489 100.254 128.372 98.7559 127.734C100.217 126.941 101.667 126.907 103.339 126.692C102.449 126.668 102.214 126.678 101.346 126.434L100.753 126.259Z" fill="black" fill-opacity="0.2"/>
<path d="M193.536 139.631C200.385 138.837 208.642 142.693 212.483 148.345C216.509 154.27 217.872 161.708 216.616 168.68C215.603 174.434 212.347 179.55 207.556 182.9C195.824 190.937 182.865 185.928 175.358 174.901C161.513 192.213 139.358 196.049 120.056 185.894C119.199 185.382 118.352 184.847 117.52 184.297C108.507 178.26 104.389 170.812 102.275 160.52L109.436 159.931C112.829 167.555 114.467 172.331 121.643 177.165C129.68 182.534 139.543 184.453 149.007 182.481C158.694 180.519 169.351 173.777 172.311 163.855C173.825 158.787 174.287 153.612 177.364 149.182C181.638 143.029 186.526 141.047 193.536 139.631ZM197.318 178.543C204.713 177.35 209.81 170.476 208.803 163.052C207.79 155.628 201.043 150.365 193.599 151.193C188.614 151.743 184.321 154.956 182.383 159.581C180.45 164.206 181.171 169.517 184.272 173.455C187.373 177.394 192.368 179.341 197.318 178.543Z" fill="white"/>
<path d="M193.536 139.631C200.385 138.837 208.642 142.693 212.483 148.345C216.509 154.27 217.872 161.708 216.616 168.68C215.603 174.434 212.347 179.55 207.556 182.9C195.824 190.937 182.865 185.928 175.358 174.901C161.513 192.213 139.358 196.049 120.056 185.894C119.199 185.382 118.352 184.847 117.52 184.297C108.507 178.26 104.389 170.812 102.275 160.52L109.436 159.931C112.829 167.555 114.467 172.331 121.643 177.165C129.68 182.534 139.543 184.453 149.007 182.481C158.694 180.519 169.351 173.777 172.311 163.855C173.825 158.787 174.287 153.612 177.364 149.182C181.638 143.029 186.526 141.047 193.536 139.631ZM197.318 178.543C204.713 177.35 209.81 170.476 208.803 163.052C207.79 155.628 201.043 150.365 193.599 151.193C188.614 151.743 184.321 154.956 182.383 159.581C180.45 164.206 181.171 169.517 184.272 173.455C187.373 177.394 192.368 179.341 197.318 178.543Z" fill="black" fill-opacity="0.2"/>
<path d="M192.197 154.382C197.952 152.742 203.959 156.037 205.658 161.777C207.357 167.517 204.115 173.553 198.39 175.311C192.592 177.088 186.453 173.792 184.73 167.974C183.006 162.157 186.36 156.047 192.197 154.382ZM195.78 168.563C197.947 168.184 199.397 166.119 199.027 163.948C198.653 161.777 196.593 160.316 194.422 160.682C192.236 161.052 190.766 163.121 191.146 165.306C191.521 167.487 193.599 168.953 195.78 168.563Z" fill="white"/>
<path d="M192.197 154.382C197.952 152.742 203.959 156.037 205.658 161.777C207.357 167.517 204.115 173.553 198.39 175.311C192.592 177.088 186.453 173.792 184.73 167.974C183.006 162.157 186.36 156.047 192.197 154.382ZM195.78 168.563C197.947 168.184 199.397 166.119 199.027 163.948C198.653 161.777 196.593 160.316 194.422 160.682C192.236 161.052 190.766 163.121 191.146 165.306C191.521 167.487 193.599 168.953 195.78 168.563Z" fill="black" fill-opacity="0.2"/>
<path d="M60.3262 160.664C71.7557 160.128 84.0468 160.479 95.4885 160.795C98.3339 160.878 100.81 166.399 95.4349 169.174C88.2851 169.368 80.9746 169.363 73.8159 169.397C69.1848 169.422 59.3847 170.585 56.884 166.029C56.3509 162.743 57.509 161.53 60.3262 160.664Z" fill="white"/>
<path d="M60.3262 160.664C71.7557 160.128 84.0468 160.479 95.4885 160.795C98.3339 160.878 100.81 166.399 95.4349 169.174C88.2851 169.368 80.9746 169.363 73.8159 169.397C69.1848 169.422 59.3847 170.585 56.884 166.029C56.3509 162.743 57.509 161.53 60.3262 160.664Z" fill="black" fill-opacity="0.2"/>
</svg>
